<svg xmlns="http://www.w3.org/2000/svg" width="80" height="40" viewBox="0 0 80 40">
  <defs>
    <style>
      .cls-1 {
        fill: #b8af98;
        fill-rule: evenodd;
      }
    </style>
  </defs>
  <path id="menu-burger" class="cls-1" d="M576.344,45H637a3,3,0,0,1,3,3v2a3,3,0,0,1-3,3H576.344a3,3,0,0,1-3-3V48A3,3,0,0,1,576.344,45ZM563,61h74a3,3,0,0,1,3,3v2a3,3,0,0,1-3,3H563a3,3,0,0,1-3-3V64A3,3,0,0,1,563,61Zm0,16h60.656a3,3,0,0,1,3,3v2a3,3,0,0,1-3,3H563a3,3,0,0,1-3-3V80A3,3,0,0,1,563,77Z" transform="translate(-560 -45)"/>
</svg>
